<svg viewBox="0 0 106 60" xmlns="http://www.w3.org/2000/svg" xmlns:xlink="http://www.w3.org/1999/xlink" width="106.000000" height="60.000000" fill="none">
	<rect id="Logo" width="106.000000" height="60.000000" x="0.000000" y="0.000000" fill="rgb(33,150,243)" fill-opacity="0" />
	<g id="group">
		<g id="Object">
			<path id="Vector" d="M53.425 27.4081C52.9819 26.8183 52.7699 26.1212 52.8203 25.4195L52.8203 22.5363C52.8203 21.6525 53.0207 20.9808 53.4216 20.5213C53.8224 20.0618 54.511 19.833 55.4871 19.835C56.4044 19.835 57.0555 20.0305 57.4405 20.4216C57.8605 20.9206 58.0648 21.5307 58.018 22.1462L58.018 22.8238L56.3772 22.8238L56.3772 22.1374C56.383 21.9128 56.3671 21.6881 56.3296 21.4657C56.306 21.3137 56.2234 21.1731 56.0952 21.0669C55.9267 20.9523 55.7145 20.8968 55.5007 20.9114C55.2759 20.8969 55.0529 20.9555 54.8756 21.0757C54.7327 21.1933 54.6374 21.3476 54.6038 21.5156C54.5567 21.7509 54.5351 21.9896 54.5393 22.2283L54.5393 25.7275C54.5134 26.065 54.5858 26.4028 54.7499 26.71C54.8315 26.814 54.9448 26.8964 55.0774 26.9482C55.2099 26.9999 55.3564 27.019 55.5007 27.0034C55.7109 27.0183 55.9195 26.9614 56.0816 26.845C56.2153 26.7304 56.3013 26.5809 56.3262 26.4197C56.3645 26.1875 56.3816 25.9531 56.3772 25.7187L56.3772 25.0089L58.018 25.0089L58.018 25.6571C58.0641 26.2986 57.8648 26.9355 57.4507 27.4697C57.0736 27.8979 56.4315 28.112 55.4871 28.112C54.5427 28.112 53.8292 27.8833 53.425 27.4081Z" fill="rgb(175,177,184)" fill-rule="nonzero" />
			<path id="Vector" d="M60.2569 27.4374C59.8425 26.9887 59.6353 26.3346 59.6353 25.4694L59.6353 22.4366C59.6353 21.5801 59.8425 20.9319 60.2569 20.492C60.6714 20.052 61.3644 19.833 62.336 19.835C63.3008 19.835 63.9904 20.054 64.4049 20.492C64.8194 20.9319 65.03 21.5801 65.03 22.4366L65.03 25.4694C65.03 26.3258 64.8193 26.9828 64.3981 27.4345C63.9768 27.8862 63.2906 28.112 62.336 28.112C61.3814 28.112 60.6748 27.8833 60.2569 27.4374ZM63.1004 26.71C63.2488 26.4289 63.3164 26.121 63.2974 25.8125L63.2974 22.0993C63.3165 21.7968 63.25 21.4948 63.1038 21.2194C63.0205 21.1132 62.9044 21.0295 62.7686 20.9776C62.6329 20.9257 62.483 20.9079 62.336 20.9261C62.1886 20.9083 62.0384 20.9264 61.9022 20.9782C61.766 21.03 61.6492 21.1135 61.5648 21.2194C61.4155 21.494 61.3477 21.7964 61.3678 22.0993L61.3678 25.8301C61.3472 26.1387 61.4148 26.447 61.5648 26.7276C61.6605 26.8223 61.7785 26.8981 61.9109 26.9501C62.0434 27.002 62.1872 27.0289 62.3326 27.0289C62.4781 27.0289 62.6218 27.002 62.7543 26.9501C62.8867 26.8981 63.0047 26.8223 63.1004 26.7276L63.1004 26.71Z" fill="rgb(175,177,184)" fill-rule="nonzero" />
			<path id="Vector" d="M67.0034 19.9236L68.77 19.9236L70.0983 25.5192L71.4572 19.9236L73.1762 19.9236L73.3495 28.0003L72.0789 28.0003L71.943 22.3871L70.6317 28.0003L69.6125 28.0003L68.2536 22.3665L68.1279 28.0003L66.8438 28.0003L67.0034 19.9236Z" fill="rgb(175,177,184)" fill-rule="nonzero" />
			<path id="Vector" d="M75.3303 19.9236L78.082 19.9236C79.6673 19.9236 80.46 20.688 80.46 22.217C80.46 23.6814 79.6254 24.4126 77.9563 24.4106L77.0187 24.4106L77.0187 28.0003L75.3201 28.0003L75.3303 19.9236ZM77.6811 23.3754C77.8489 23.3938 78.0194 23.3805 78.1807 23.3364C78.342 23.2924 78.4903 23.2186 78.6153 23.1203C78.8101 22.8475 78.896 22.5271 78.8599 22.2082C78.8688 21.9618 78.8414 21.7154 78.7784 21.475C78.7542 21.3947 78.7117 21.3194 78.6533 21.2534C78.595 21.1874 78.522 21.1322 78.4387 21.0908C78.2029 20.9932 77.9422 20.9488 77.6811 20.9618L77.0221 20.9618L77.0221 23.3754L77.6811 23.3754Z" fill="rgb(175,177,184)" fill-rule="nonzero" />
			<path id="Vector" d="M82.9094 19.9236L84.7337 19.9236L86.6056 28.0003L85.0225 28.0003L84.6522 26.138L83.0249 26.138L82.6445 28.0003L81.0376 28.0003L82.9094 19.9236ZM84.4688 25.2025L83.8335 21.8123L83.1982 25.2025L84.4688 25.2025Z" fill="rgb(175,177,184)" fill-rule="nonzero" />
			<path id="Vector" d="M88.1172 19.9236L89.3062 19.9236L91.5823 24.5309L91.5823 19.9236L92.9922 19.9236L92.9922 28.0003L91.8609 28.0003L89.5712 23.1906L89.5712 28.0003L88.1138 28.0003L88.1172 19.9236Z" fill="rgb(175,177,184)" fill-rule="nonzero" />
			<path id="Vector" d="M96.2946 24.9207L94.4023 19.9348L95.9956 19.9348L97.1507 23.1375L98.2344 19.9348L99.7937 19.9348L97.9252 24.9207L97.9252 28.0002L96.2946 28.0002L96.2946 24.9207Z" fill="rgb(175,177,184)" fill-rule="nonzero" />
			<path id="Vector" d="M56.0478 31.5315L56.0478 31.9538L54.6618 31.9538L54.6618 35.2358L54.0808 35.2358L54.0808 31.9538L52.688 31.9538L52.688 31.5315L56.0478 31.5315Z" fill="rgb(175,177,184)" fill-rule="nonzero" />
			<path id="Vector" d="M60.3926 35.2361L59.9441 35.2361C59.8986 35.2385 59.8536 35.2259 59.8184 35.2009C59.7845 35.1794 59.7585 35.1498 59.7437 35.1158L59.3428 34.236L57.42 34.236L57.0191 35.1158C57.0077 35.1526 56.9868 35.1867 56.9579 35.2155C56.9224 35.2401 56.8777 35.2526 56.8322 35.2507L56.3838 35.2507L58.0824 31.5466L58.6735 31.5466L60.3926 35.2361ZM57.5796 33.8606L59.1831 33.8606L58.5037 32.3531C58.4536 32.2391 58.4116 32.1226 58.378 32.0041C58.3542 32.0745 58.3338 32.142 58.3134 32.2006L58.2523 32.3561L57.5796 33.8606Z" fill="rgb(175,177,184)" fill-rule="nonzero" />
			<path id="Vector" d="M63.3213 34.8724C63.4277 34.8772 63.5342 34.8772 63.6406 34.8724C63.7325 34.8642 63.8234 34.8495 63.9124 34.8284C63.9956 34.8107 64.0774 34.7882 64.157 34.7609C64.2317 34.7345 64.3065 34.7022 64.3846 34.67L64.3846 33.8369L63.7052 33.8369C63.6884 33.8378 63.6715 33.8356 63.6558 33.8305C63.64 33.8255 63.6256 33.8177 63.6134 33.8076C63.6023 33.7993 63.5935 33.7889 63.5876 33.7772C63.5817 33.7655 63.5789 33.7529 63.5795 33.7401L63.5795 33.4556L64.8976 33.4556L64.8976 34.8753C64.79 34.9417 64.6764 35.0006 64.5579 35.0513C64.4367 35.1029 64.3106 35.1451 64.1808 35.1774C64.0418 35.2127 63.8998 35.2382 63.7561 35.2537C63.5914 35.2695 63.4258 35.2773 63.2601 35.2771C62.9671 35.2793 62.6764 35.2325 62.404 35.1393C62.1497 35.051 61.9186 34.9193 61.7246 34.7521C61.5355 34.5832 61.3866 34.3839 61.2864 34.1655C61.1793 33.9199 61.1263 33.6593 61.1301 33.397C61.1265 33.133 61.1783 32.8706 61.2829 32.6226C61.3807 32.4031 61.5299 32.2034 61.7212 32.036C61.9151 31.8693 62.1462 31.7386 62.4006 31.6517C62.6915 31.5572 63.0003 31.5105 63.3111 31.5138C63.4692 31.5137 63.6272 31.5245 63.7833 31.5461C63.9214 31.5655 64.0568 31.597 64.1876 31.64C64.3064 31.6785 64.4203 31.7277 64.5273 31.7866C64.6314 31.8445 64.7302 31.9092 64.8229 31.9802L64.6598 32.209C64.647 32.2299 64.628 32.2475 64.6047 32.2598C64.5814 32.2722 64.5547 32.279 64.5273 32.2794C64.4897 32.2784 64.4532 32.2682 64.422 32.2501C64.371 32.2266 64.3167 32.1973 64.2555 32.1621C64.1833 32.123 64.1071 32.0896 64.0279 32.0624C63.9266 32.0273 63.8221 31.9998 63.7154 31.9802C63.5731 31.9576 63.4286 31.9468 63.2839 31.948C63.0598 31.9458 62.8372 31.9807 62.6283 32.0506C62.4392 32.1161 62.2688 32.2162 62.1289 32.3439C61.9881 32.4771 61.8805 32.6339 61.8129 32.8045C61.6611 33.2057 61.6611 33.6381 61.8129 34.0393C61.8873 34.2135 62.003 34.3724 62.1526 34.5057C62.292 34.6328 62.4611 34.7328 62.6486 34.799C62.8647 34.8631 63.0936 34.888 63.3213 34.8724Z" fill="rgb(175,177,184)" fill-rule="nonzero" />
			<path id="Vector" d="M68.7363 34.8134L70.5912 34.8134L70.5912 35.2358L68.1689 35.2358L68.1689 31.5315L68.7499 31.5315L68.7363 34.8134Z" fill="rgb(175,177,184)" fill-rule="nonzero" />
			<path id="Vector" d="M72.5209 35.2358L71.9399 35.2358L71.9399 31.5315L72.5209 31.5315L72.5209 35.2358Z" fill="rgb(175,177,184)" fill-rule="nonzero" />
			<path id="Vector" d="M74.6814 31.5494C74.7159 31.5664 74.746 31.5893 74.7697 31.6168L77.253 34.4091C77.2497 34.3652 77.2497 34.3211 77.253 34.2771C77.253 34.2361 77.253 34.195 77.253 34.1569L77.253 31.5171L77.7592 31.5171L77.7592 35.2363L77.4671 35.2363C77.4238 35.2393 77.3804 35.2322 77.3414 35.2157C77.3061 35.1973 77.275 35.1734 77.2496 35.1453L74.7697 32.356C74.7697 32.4 74.7697 32.441 74.7697 32.4821C74.7697 32.5231 74.7697 32.5613 74.7697 32.5965L74.7697 35.2363L74.2839 35.2363L74.2839 31.5318L74.5863 31.5318C74.6191 31.5318 74.6515 31.5378 74.6814 31.5494Z" fill="rgb(175,177,184)" fill-rule="nonzero" />
			<path id="Vector" d="M82.0365 31.5315L82.0365 31.9392L79.9778 31.9392L79.9778 33.1622L81.6458 33.1622L81.6458 33.5553L79.9778 33.5553L79.9778 34.8194L82.0365 34.8194L82.0365 35.2271L79.3799 35.2271L79.3799 31.5315L82.0365 31.5315Z" fill="rgb(175,177,184)" fill-rule="nonzero" />
			<path id="Vector" d="M21.1618 8.65538L46.9568 14.9787L46.9568 37.1367L21.1618 30.8163L21.1618 8.65538ZM19.5073 6.7666L19.5073 31.8927L48.6079 39.0284L48.6079 13.9053L19.5073 6.7666Z" fill="rgb(175,177,184)" fill-rule="nonzero" />
			<path id="Vector" d="M35.1039 50.6921L6 43.5504L6 18.427L35.1039 25.5657L35.1039 50.6921Z" fill="rgb(175,177,184)" fill-rule="nonzero" />
			<path id="Vector" d="M19.9897 8.37086L45.4484 14.6149L34.6215 23.9648L9.1594 17.7178L19.9897 8.37086ZM19.5073 6.7666L6 18.4276L35.1039 25.5661L48.6078 13.9051L19.5073 6.7666Z" fill="rgb(175,177,184)" fill-rule="nonzero" />
			<path id="Vector" d="M36.7415 49.2786L48.6078 39.0314L36.7415 36.1191L36.7415 49.2786Z" fill="rgb(175,177,184)" fill-rule="nonzero" />
		</g>
	</g>
</svg>
